<svg width="56" height="29" viewBox="0 0 56 29" fill="none" xmlns="http://www.w3.org/2000/svg">
<rect x="0.988281" width="54.9151" height="29" rx="3" fill="white"/>
<path d="M42.3016 9.15701C42.5027 9.01639 42.6032 8.94607 42.7038 8.87576C44.1014 7.83865 45.8913 7.95291 47.0879 9.18338C47.2085 9.30643 47.2689 9.31521 47.3895 9.20975C47.47 9.13064 47.5605 9.06912 47.6409 8.99002C48.576 8.19022 49.8128 7.95291 50.9692 8.40115C52.1859 8.87576 52.8395 9.71072 52.8495 10.8797C52.8696 13.4021 52.8596 15.9158 52.8596 18.4382C52.8596 19.3347 52.2261 19.8972 51.2105 19.8972C50.8083 19.8972 50.4061 19.8709 50.0039 19.906C49.5916 19.9412 49.471 19.8269 49.471 19.449C49.4911 16.9881 49.481 14.5271 49.481 12.0662C49.481 11.9607 49.481 11.864 49.481 11.7586C49.471 11.1873 49.2095 10.95 48.5861 10.9236C48.023 10.8972 47.6308 11.1961 47.5705 11.697C47.5605 11.8113 47.5705 11.9344 47.5705 12.0486C47.5705 14.1756 47.5705 16.2937 47.5705 18.4207C47.5705 19.3523 46.9571 19.8972 45.8913 19.8884C45.3483 19.8797 44.6143 20.0994 44.3026 19.7918C44.0311 19.5281 44.2121 18.9041 44.2121 18.4382C44.2121 16.2586 44.2121 14.0701 44.2121 11.8904C44.2121 11.117 43.6389 10.7215 42.8948 10.9851C42.4323 11.1521 42.2814 11.4773 42.2814 11.8992C42.2915 13.9383 42.2814 15.9685 42.2814 18.0076C42.2814 18.1658 42.2814 18.3328 42.2814 18.491C42.2513 19.3435 41.6279 19.8797 40.6625 19.8884C40.2603 19.8972 39.8581 19.8621 39.4559 19.8972C39.0235 19.9324 38.8928 19.8269 38.9029 19.4226C38.923 15.9685 38.9129 12.5144 38.9129 9.05154C38.9129 8.90213 38.923 8.7615 38.9129 8.61209C38.8928 8.41873 38.9833 8.35721 39.2045 8.35721C40.1296 8.366 41.0446 8.366 41.9697 8.35721C42.201 8.35721 42.3116 8.40994 42.2915 8.62967C42.2714 8.78787 42.2915 8.9285 42.3016 9.15701Z" fill="#02B9EF"/>
<path d="M20.9842 13.9194C20.9842 15.1235 20.9842 16.3189 20.9842 17.523C20.9741 19.0874 20.039 19.896 18.2492 19.9048C17.4648 19.9048 16.6705 19.9136 15.8862 19.9048C14.2974 19.8872 13.131 18.9644 13.0506 17.5757C12.9903 16.5825 12.9802 15.5806 13.0405 14.5874C13.121 13.1636 14.3678 12.1616 16.0169 12.1441C16.4493 12.1353 16.8917 12.1441 17.3241 12.1441C17.7464 12.1353 17.9073 11.9243 17.8972 11.5728C17.8972 11.2212 17.7162 11.063 17.314 11.0806C16.8615 11.0894 16.409 11.0894 15.9566 11.0806C14.8505 11.063 14.2371 10.5357 14.2472 9.58644C14.2472 9.19972 14.0461 8.68117 14.3377 8.45265C14.589 8.25929 15.1622 8.38234 15.5946 8.38234C16.7208 8.37355 17.8369 8.38234 18.9631 8.38234C20.1597 8.38234 20.9741 9.09425 20.9842 10.1489C20.9942 11.397 20.9842 12.6626 20.9842 13.9194ZM17.9073 15.9146C17.9073 15.7651 17.9073 15.6245 17.9073 15.4751C17.9073 14.5786 17.9073 14.5786 16.8816 14.6138C16.3688 14.6314 16.0873 14.8599 16.0772 15.3257C16.0672 15.6948 16.0672 16.0552 16.0772 16.4243C16.0873 17.0571 16.409 17.2241 17.4548 17.2505C18.229 17.2681 17.8369 16.7935 17.9073 16.5298C17.9475 16.3364 17.8972 16.1167 17.9073 15.9146Z" fill="#06306F"/>
<path d="M29.9326 12.9635C29.9326 14.3082 29.9527 15.6617 29.9225 17.0064C29.9024 18.0435 29.6209 18.984 28.4746 19.5377C28.012 19.7574 27.5093 19.8804 26.9864 19.8892C25.83 19.9068 24.6737 19.8892 23.5173 19.9068C23.2358 19.9068 23.1754 19.8189 23.1855 19.5992C23.2056 19.2301 23.1754 18.8697 23.1955 18.5006C23.2156 17.7974 23.829 17.2613 24.6334 17.2349C25.1563 17.2174 25.6691 17.2261 26.192 17.2349C26.6143 17.2349 26.8456 17.0855 26.8456 16.69C26.8456 16.2857 26.6244 16.1451 26.2021 16.1363C25.4982 16.1187 24.7943 16.2066 24.1005 16.0308C22.9039 15.7232 22.0291 14.8531 21.999 13.772C21.9386 12.0582 21.9788 10.3443 21.9688 8.63045C21.9688 8.43709 22.0392 8.37557 22.2604 8.38436C23.0849 8.39315 23.8994 8.40194 24.7239 8.38436C25.0859 8.37557 25.0357 8.55135 25.0357 8.74471C25.0357 10.0367 25.0357 11.3199 25.0357 12.6119C25.0357 13.1744 25.3373 13.4732 25.9004 13.4908C26.5641 13.5084 26.8557 13.2711 26.8557 12.6822C26.8557 11.3814 26.8657 10.0719 26.8456 8.77108C26.8456 8.46346 26.9361 8.37557 27.288 8.38436C28.0221 8.41073 28.7662 8.41951 29.5002 8.38436C29.9024 8.36678 29.9627 8.49861 29.9527 8.80623C29.9225 10.1861 29.9326 11.5748 29.9326 12.9635Z" fill="#06306F"/>
<path d="M4.31297 14.9562C4.31297 13.5236 4.31297 12.0822 4.31297 10.6495C4.31297 9.2433 5.29839 8.36439 6.91729 8.38197C7.97309 8.39076 9.02889 8.2765 10.0746 8.45228C11.412 8.6808 12.2566 9.58607 12.2667 10.7902C12.2767 12.0646 12.2667 13.339 12.2667 14.6134C12.2667 16.213 11.1908 17.1886 9.36072 17.2326C8.80768 17.2501 8.25464 17.2413 7.7016 17.2326C7.45022 17.2238 7.33961 17.2941 7.34966 17.5314C7.36977 17.8829 7.35972 18.2345 7.34966 18.5861C7.32955 19.3419 6.71618 19.8869 5.86148 19.8956C5.35872 19.9044 4.72524 20.0802 4.40347 19.8253C4.10181 19.588 4.32303 19.0255 4.31297 18.6037C4.30292 17.3908 4.31297 16.1691 4.31297 14.9562ZM7.34966 12.8029C7.34966 13.0841 7.34966 13.3566 7.34966 13.6378C7.34966 14.631 7.34966 14.631 8.48591 14.5431C8.97862 14.5079 9.20989 14.297 9.21994 13.8663C9.23 13.3742 9.19983 12.8732 9.23 12.381C9.29033 10.9572 8.98867 11.0978 7.66138 11.089C7.42005 11.089 7.33961 11.1505 7.33961 11.3615C7.35972 11.8361 7.34966 12.3195 7.34966 12.8029Z" fill="#06306F"/>
<path d="M32.7786 14.9757C32.7786 13.8068 32.7685 12.629 32.7887 11.4601C32.7887 11.1876 32.7183 11.0734 32.3764 11.0822C31.9239 11.0997 31.3206 11.214 31.0692 11.0206C30.7575 10.7658 30.9988 10.2208 30.9586 9.79896C30.9586 9.77259 30.9586 9.73743 30.9586 9.71107C30.9586 9.29798 30.8078 8.81458 31.0089 8.50696C31.21 8.19935 31.8233 8.39271 32.2557 8.29603C33.1104 8.10267 33.754 7.672 34.2768 7.07435C34.6388 6.67005 35.0913 6.38001 35.6745 6.28333C35.9862 6.2306 36.1773 6.26575 36.1572 6.61731C36.127 7.1095 36.1572 7.61048 36.1471 8.11146C36.1371 8.32239 36.2276 8.39271 36.4689 8.38392C36.8711 8.37513 37.2733 8.39271 37.6755 8.37513C37.9168 8.36634 37.9973 8.44544 37.9872 8.65638C37.9772 9.37708 37.9772 10.089 37.9872 10.8097C37.9872 11.0118 37.9269 11.1173 37.6755 11.0909C37.6252 11.0822 37.575 11.0909 37.5247 11.0909C37.0823 11.1261 36.4689 10.9152 36.2376 11.1788C36.0164 11.4249 36.1572 11.9347 36.1572 12.3302C36.1572 14.7208 36.1471 17.1027 36.1672 19.4933C36.1672 19.8273 36.0667 19.9327 35.6846 19.9064C35.3226 19.88 34.9505 19.9064 34.5785 19.8976C33.4925 19.8624 32.7786 19.2208 32.7786 18.2716C32.7786 17.173 32.7786 16.0743 32.7786 14.9757Z" fill="#02B9EF"/>
</svg>
